<svg xmlns="http://www.w3.org/2000/svg" width="1200" height="630" viewBox="0 0 1200 630">
  <defs>
    <linearGradient id="bg" x1="0" y1="0" x2="1" y2="1">
      <stop offset="0" stop-color="#0b0b0f"/><stop offset="1" stop-color="#16101a"/>
    </linearGradient>
    <linearGradient id="g" x1="0" y1="0" x2="1" y2="1">
      <stop offset="0" stop-color="#f9a825"/><stop offset=".34" stop-color="#f4511e"/>
      <stop offset=".64" stop-color="#d81b60"/><stop offset="1" stop-color="#8e24aa"/>
    </linearGradient>
  </defs>
  <rect width="1200" height="630" fill="url(#bg)"/>
  <circle cx="980" cy="140" r="300" fill="#d81b60" opacity="0.16"/>
  <circle cx="200" cy="560" r="280" fill="#8e24aa" opacity="0.13"/>
  <g transform="translate(110,150)">
    <rect width="92" height="92" rx="22" fill="url(#g)"/>
    <g transform="translate(46,46)" fill="none" stroke="#fff" stroke-width="4.5">
      <path d="M-30 0s12-20 30-20 30 20 30 20-12 20-30 20-30-20-30-20z"/>
      <circle cx="0" cy="0" r="8.5" fill="#fff" stroke="none"/>
    </g>
  </g>
  <text x="230" y="200" font-family="Inter,Segoe UI,Arial,sans-serif" font-size="88" font-weight="800" fill="#f4f4f6" letter-spacing="-2">stalker</text>
  <text x="232" y="248" font-family="Inter,Segoe UI,Arial,sans-serif" font-size="26" font-weight="700" fill="#9090a0" letter-spacing="6">IG ANALYTICS</text>
  <text x="112" y="360" font-family="Inter,Segoe UI,Arial,sans-serif" font-size="44" font-weight="700" fill="#f4f4f6">Track followers, mutuals &amp; unfollowers</text>
  <text x="112" y="418" font-family="Inter,Segoe UI,Arial,sans-serif" font-size="28" font-weight="500" fill="#9090a0">Private &middot; self-hosted &middot; full change history &middot; bento dashboard</text>
  <g transform="translate(112,470)" font-family="Inter,Segoe UI,Arial,sans-serif">
    <rect width="190" height="92" rx="14" fill="#ffffff" opacity="0.05"/>
    <text x="20" y="40" font-size="20" font-weight="600" fill="#9090a0">Mutual</text>
    <text x="20" y="78" font-size="34" font-weight="800" fill="#28d17e">478</text>
    <rect x="210" width="190" height="92" rx="14" fill="#ffffff" opacity="0.05"/>
    <text x="230" y="40" font-size="20" font-weight="600" fill="#9090a0">Following</text>
    <text x="230" y="78" font-size="34" font-weight="800" fill="#f4f4f6">612</text>
    <rect x="420" width="190" height="92" rx="14" fill="#ffffff" opacity="0.05"/>
    <text x="440" y="40" font-size="20" font-weight="600" fill="#9090a0">One-way</text>
    <text x="440" y="78" font-size="34" font-weight="800" fill="#ff4d6d">134</text>
  </g>
</svg>
